<!DOCTYPE svg PUBLIC "-//W3C//DTD SVG 1.1//EN" "http://www.w3.org/Graphics/SVG/1.1/DTD/svg11.dtd">

<!-- Uploaded to: SVG Repo, www.svgrepo.com, Transformed by: SVG Repo Mixer Tools -->
<svg width="18px" height="18px" viewBox="-1.6 -1.6 19.20 19.20" id="meteor-icon-kit__solid-times-circle-s" fill="none" xmlns="http://www.w3.org/2000/svg" stroke="#000000" stroke-width="0.256" transform="matrix(-1, 0, 0, 1, 0, 0)rotate(0)">

<g id="SVGRepo_bgCarrier" stroke-width="0"/>

<g id="SVGRepo_tracerCarrier" stroke-linecap="round" stroke-linejoin="round" stroke="#CCCCCC" stroke-width="0.64">

<path fill-rule="evenodd" clip-rule="evenodd" d="M8 6.5858L6.5858 5.17157C6.1953 4.78105 5.5621 4.78105 5.17157 5.17157C4.78105 5.5621 4.78105 6.1953 5.17157 6.5858L6.5858 8L5.17157 9.4142C4.78105 9.8047 4.78105 10.4379 5.17157 10.8284C5.5621 11.219 6.1953 11.219 6.5858 10.8284L8 9.4142L9.4142 10.8284C9.8047 11.219 10.4379 11.219 10.8284 10.8284C11.219 10.4379 11.219 9.8047 10.8284 9.4142L9.4142 8L10.8284 6.5858C11.219 6.1953 11.219 5.5621 10.8284 5.17157C10.4379 4.78105 9.8047 4.78105 9.4142 5.17157L8 6.5858zM2.34315 13.6569C-0.78105 10.5327 -0.78105 5.46734 2.34315 2.34315C5.46734 -0.78105 10.5327 -0.78105 13.6569 2.34315C16.781 5.46734 16.781 10.5327 13.6569 13.6569C10.5327 16.781 5.46734 16.781 2.34315 13.6569z" fill="#d62929"/>
</g>
<g id="SVGRepo_iconCarrier">

<path fill-rule="evenodd" clip-rule="evenodd" d="M8 6.5858L6.5858 5.17157C6.1953 4.78105 5.5621 4.78105 5.17157 5.17157C4.78105 5.5621 4.78105 6.1953 5.17157 6.5858L6.5858 8L5.17157 9.4142C4.78105 9.8047 4.78105 10.4379 5.17157 10.8284C5.5621 11.219 6.1953 11.219 6.5858 10.8284L8 9.4142L9.4142 10.8284C9.8047 11.219 10.4379 11.219 10.8284 10.8284C11.219 10.4379 11.219 9.8047 10.8284 9.4142L9.4142 8L10.8284 6.5858C11.219 6.1953 11.219 5.5621 10.8284 5.17157C10.4379 4.78105 9.8047 4.78105 9.4142 5.17157L8 6.5858zM2.34315 13.6569C-0.78105 10.5327 -0.78105 5.46734 2.34315 2.34315C5.46734 -0.78105 10.5327 -0.78105 13.6569 2.34315C16.781 5.46734 16.781 10.5327 13.6569 13.6569C10.5327 16.781 5.46734 16.781 2.34315 13.6569z" fill="#d62929"/>

</g>

</svg>